# xmcd
#
# Track frame offsets: 
#        150
#        17397
#        32462
#        47315
#        63334
#        89319
#        112297
#        128745
#
# Disc length: 2041 seconds
#
# Revision: 0
# Processed by: cddbd v1.5.2PL0 Copyright (c) Steve Scherf et al.
# Submitted via: ExactAudioCopy v0.99pb5
#
DISCID=5907f708
DTITLE=Marcelo Naves and Os Maquinistas Do Blues - Minha Gaita E' Meu Pa
DTITLE=trao
DYEAR=1900
DGENRE=Blues
TTITLE0=Keep Walking
TTITLE1=Mellow Down Easy
TTITLE2=Mr. Alvaro
TTITLE3=Naves' Song
TTITLE4=Minha Gaita E' Meu Patrao
TTITLE5=Sad Hours
TTITLE6=Everything's Gonna Be Alright
TTITLE7=Thunder Blues
EXTD=
EXTT0=
EXTT1=
EXTT2=
EXTT3=
EXTT4=
EXTT5=
EXTT6=
EXTT7=
PLAYORDER=
